<svg data-v-0dd9719b="" version="1.0" xmlns="http://www.w3.org/2000/svg" xmlns:xlink="http://www.w3.org/1999/xlink" width="100%" height="100%" viewBox="0 0 340.000000 250.000000" preserveAspectRatio="xMidYMid meet" color-interpolation-filters="sRGB" style="margin: auto;"> <rect data-v-0dd9719b="" x="0" y="0" width="100%" height="100%" fill="#fff" fill-opacity="1" class="background"></rect> <rect data-v-0dd9719b="" x="0" y="0" width="100%" height="100%" fill="url(#watermark)" fill-opacity="1" class="watermarklayer"></rect> <g data-v-0dd9719b="" fill="#333" class="icon-text-wrapper icon-svg-group iconsvg" transform="translate(47.769996643066406,95.00180053710938)"><g class="iconsvg-imagesvg" transform="translate(0,0)"><g><rect fill="#333" fill-opacity="0" stroke-width="2" x="0" y="0" width="60" height="59.996400215987045" class="image-rect"></rect> <svg x="0" y="0" width="60" height="59.996400215987045" filtersec="colorsb2730495671" class="image-svg-svg primary" style="overflow: visible;"><svg xmlns="http://www.w3.org/2000/svg" viewBox="-0.005915164947509766 -0.0032501220703125 100.00916290283203 100.00305938720703"><path d="M97.79 58.53L87.06 44.81a58.94 58.94 0 0 1-5-7.79L72.32 42l-9.14 27.73 4.92 9.75a60.75 60.75 0 0 1 8.64-3.3l16.78-4.67c6.48-1.81 8.48-7.65 4.27-12.98z" fill="#00d495"></path><path d="M30.27 63.18l-9.76 4.92a58.55 58.55 0 0 1 3.31 8.64l4.67 16.78c1.81 6.52 7.65 8.45 13 4.27l13.7-10.73a58.94 58.94 0 0 1 7.79-5l-4.93-9.75z" fill="#7fe000"></path><path d="M36.82 30.27l-4.93-9.76a57.37 57.37 0 0 1-8.63 3.31L6.48 28.49C0 30.3-2 36.14 2.2 41.47l10.74 13.72a58.94 58.94 0 0 1 5 7.79l9.75-4.93z" fill="#00a2ff"></path><path d="M69.73 36.82l9.75-4.92a60 60 0 0 1-3.3-8.64L71.51 6.48C69.7 0 63.85-2 58.53 2.21L44.81 12.94a58.94 58.94 0 0 1-7.79 5L42 27.68z" fill="#00c0d9"></path></svg></svg> <!----></g></g> <g transform="translate(67,17.123199462890625)"><g data-gra="path-name" fill-rule="" class="tp-name iconsvg-namesvg"><g transform="scale(1)"><g><path d="M2.51 1.67L8.86 1.67 8.86-7.25 21.29-7.25 21.29-12.83 8.86-12.83 8.86-17.54 22.84-17.54 22.84-23.12 2.51-23.12 2.51 1.67ZM30.68 1.67L32.38-2.79 42.36-2.79 44 1.67 50.66 1.67 41.06-23.12 33.93-23.12 24.01 1.67 30.68 1.67ZM37.49-16.02L40.31-8.37 34.49-8.37 37.43-16.02 37.49-16.02ZM52.92 1.67L59.28 1.67 59.28-13.2 59.34-13.2 69.19 1.67 75.85 1.67 75.85-23.12 69.5-23.12 69.5-8.24 69.44-8.24 59.59-23.12 52.92-23.12 52.92 1.67ZM102.29-16.11Q102.13-16.79 101.59-17.68 101.05-18.56 100.21-19.71L100.21-19.71Q98.57-21.81 96.41-22.68 94.26-23.55 91.29-23.61L91.29-23.61Q87.6-23.58 84.93-21.91 82.27-20.23 80.87-17.32 79.48-14.41 79.51-10.72L79.51-10.72Q79.51-7.16 80.92-4.21 82.33-1.27 84.89 0.43 87.44 2.14 90.73 2.14L90.73 2.14Q93.7 2.14 96.38 1.08 99.06 0.03 100.75-2.15 102.44-4.34 102.44-7.56L102.44-7.56 102.44-13.14 91.29-13.14 91.29-7.56 96.09-7.56 96.09-7.31Q96.06-6.2 95.33-5.3 94.6-4.4 93.5-3.89 92.4-3.38 91.29-3.38L91.29-3.38Q89.77-3.38 88.53-4.29 87.29-5.21 86.58-6.85 85.86-8.49 85.86-10.57L85.86-10.57Q85.86-12.89 86.58-14.7 87.29-16.52 88.9-17.45L88.9-17.45Q90.14-18.03 91.38-18.03L91.38-18.03Q92.65-18.03 93.67-17.51L93.67-17.51Q94.17-17.29 94.52-16.86 94.88-16.42 95-16.11L95-16.11 102.29-16.11ZM106.66 1.67L125.71 1.67 125.71-3.9 113.01-3.9 113.01-23.12 106.66-23.12 106.66 1.67ZM133.27 1.67L134.98-2.79 144.95-2.79 146.6 1.67 153.26 1.67 143.65-23.12 136.53-23.12 126.61 1.67 133.27 1.67ZM140.09-16.02L142.91-8.37 137.08-8.37 140.03-16.02 140.09-16.02ZM159.98 1.67L161.69-2.79 171.66-2.79 173.31 1.67 179.97 1.67 170.36-23.12 163.24-23.12 153.32 1.67 159.98 1.67ZM166.8-16.02L169.62-8.37 163.79-8.37 166.74-16.02 166.8-16.02Z" transform="translate(-2.509999990463257, 23.610000610351562)"></path></g> <!----> <!----> <!----> <!----> <!----> <!----> <!----></g></g> <!----></g></g><defs v-gra="od"></defs></svg>